<?xml version="1.0" encoding="utf-8"?>
<!-- Generator: Adobe Illustrator 19.1.0, SVG Export Plug-In . SVG Version: 6.00 Build 0)  -->
<svg version="1.1" id="Layer_1" xmlns="http://www.w3.org/2000/svg" xmlns:xlink="http://www.w3.org/1999/xlink" x="0px" y="0px"
	 viewBox="0 0 122.3 49.1" style="enable-background:new 0 0 122.3 49.1;" xml:space="preserve">
<style type="text/css">
	.st0{fill:none;stroke:#000000;stroke-miterlimit:10;}
	.st1{display:none;}
	.st2{display:inline;fill:#FFFFFF;}
	.st3{fill:#FFFFFF;}
	.st4{display:none;fill:#FFFFFF;}
	.st5{fill:#4DA6CF;}
	.st6{fill:#B32D7A;}
	.st7{fill:#3F2CAF;}
	.st8{fill:none;stroke:#000000;}
	.st9{fill:none;stroke:#000000;stroke-linejoin:round;}
	.st10{fill:none;stroke:#000000;stroke-linejoin:round;stroke-miterlimit:10;}
	.st11{fill:none;stroke:#4DA6CF;stroke-miterlimit:10;}
	.st12{fill:none;stroke:#B32D7A;stroke-miterlimit:10;}
	.st13{fill:none;stroke:#3F2CAF;stroke-miterlimit:10;}
	.st14{fill:none;stroke:#000000;stroke-linejoin:round;stroke-miterlimit:5;}
	.st15{opacity:0.24;}
	.st16{fill:none;stroke:#FFFFFF;stroke-linejoin:round;}
	.st17{fill:none;stroke:#FFFFFF;stroke-linejoin:round;stroke-miterlimit:10;}
</style>
<g>
	<g>
		<path class="st16" d="M23.4,8.9v37.2H13.1V8.9H0V0h36.4v8.9H23.4z"/>
		<path class="st16" d="M63.8,46.1H53.5V27.9L37.6,0h11.2l10,17.2L68.6,0h11.2l-16,27.9V46.1z"/>
		<path class="st16" d="M108.4,46.1l-4.3-10H84.7l-4.3,10h-11L89.4,0h10l19.9,46.1H108.4z M94.4,13.7l-5.8,13.4h11.5L94.4,13.7z"/>
	</g>
	<g>
		<path class="st16" d="M26.4,11.9v37.2H16.1V11.9H3V3h36.4v8.9H26.4z"/>
		<path class="st16" d="M66.8,49.1H56.5V30.9L40.6,3h11.2l10,17.2L71.6,3h11.2l-16,27.9V49.1z"/>
		<path class="st16" d="M111.4,49.1l-4.3-10H87.7l-4.3,10h-11L92.4,3h10l19.9,46.1H111.4z M97.4,16.7l-5.8,13.4h11.5L97.4,16.7z"/>
	</g>
	<line class="st17" x1="0" y1="8.9" x2="3" y2="11.9"/>
	<line class="st17" x1="0" y1="0" x2="3" y2="3"/>
	<line class="st17" x1="13.1" y1="8.9" x2="16.1" y2="11.9"/>
	<line class="st17" x1="13.1" y1="46.1" x2="16.1" y2="49.1"/>
	<line class="st17" x1="23.4" y1="8.9" x2="26.4" y2="11.9"/>
	<line class="st17" x1="23.4" y1="46.1" x2="26.4" y2="49.1"/>
	<line class="st17" x1="37.6" y1="0" x2="40.6" y2="3"/>
	<line class="st17" x1="48.7" y1="0" x2="51.7" y2="3"/>
	<line class="st17" x1="68.6" y1="0" x2="71.6" y2="3"/>
	<line class="st17" x1="79.8" y1="0" x2="82.8" y2="3"/>
	<line class="st17" x1="89.4" y1="0" x2="92.4" y2="3"/>
	<line class="st17" x1="99.4" y1="0" x2="102.4" y2="3"/>
	<line class="st17" x1="69.5" y1="46.1" x2="72.5" y2="49.1"/>
	<line class="st17" x1="80.5" y1="46.1" x2="83.5" y2="49.1"/>
	<line class="st17" x1="84.7" y1="36.2" x2="87.7" y2="39.2"/>
	<line class="st17" x1="88.6" y1="27.1" x2="91.6" y2="30.1"/>
	<line class="st17" x1="94.4" y1="13.7" x2="97.4" y2="16.7"/>
	<line class="st17" x1="100.2" y1="27.1" x2="103.2" y2="30.1"/>
	<line class="st17" x1="104.1" y1="36.2" x2="107.1" y2="39.2"/>
	<line class="st17" x1="108.4" y1="46.1" x2="111.4" y2="49.1"/>
	<line class="st17" x1="119.3" y1="46.1" x2="122.3" y2="49.1"/>
	<line class="st17" x1="53.5" y1="46.1" x2="56.5" y2="49.1"/>
	<line class="st17" x1="63.8" y1="46.1" x2="66.8" y2="49.1"/>
	<line class="st17" x1="63.8" y1="27.9" x2="66.8" y2="30.9"/>
	<line class="st17" x1="58.7" y1="17.2" x2="61.7" y2="20.2"/>
	<line class="st17" x1="53.5" y1="27.9" x2="56.5" y2="30.9"/>
	<line class="st17" x1="36.4" y1="8.9" x2="39.4" y2="11.9"/>
</g>
</svg>
